Coordinates
version=1
nRows=8
nColumns=40
inDegrees=yes

Units are S.I. units (second, meters, Newtons, ...)
If the header above contains a line with 'inDegrees', this indicates whether rotational values are in degrees (yes) or radians (no).

endheader
time	pelvis_tilt	pelvis_list	pelvis_rotation	pelvis_tx	pelvis_ty	pelvis_tz	hip_flexion_r	hip_adduction_r	hip_rotation_r	knee_angle_r	knee_angle_r_beta	ankle_angle_r	subtalar_angle_r	mtp_angle_r	hip_flexion_l	hip_adduction_l	hip_rotation_l	knee_angle_l	knee_angle_l_beta	ankle_angle_l	subtalar_angle_l	mtp_angle_l	lumbar_extension	lumbar_bending	lumbar_rotation	arm_flex_r	arm_add_r	arm_rot_r	elbow_flex_r	pro_sup_r	wrist_flex_r	wrist_dev_r	arm_flex_l	arm_add_l	arm_rot_l	elbow_flex_l	pro_sup_l	wrist_flex_l	wrist_dev_l
      0.39000000	     -3.26700131	     -4.73721633	      3.10820080	      0.32116336	      0.91185202	     -0.25492587	     -2.66199883	     10.16040164	     -9.80262827	      5.41552680	      0.09451877	      6.66325707	      0.00000000	      0.00000000	     29.78825724	     -4.76874802	      2.34366146	     35.45172124	      0.61874926	      6.04254010	      0.00000000	      0.00000000	     -9.71444247	      1.76928476	      2.73098902	      4.91451986	    -11.95074864	    -10.62839927	     62.24165230	     86.71433447	     37.09041103	     20.26058519	     -6.25642202	    -12.13426543	    -11.72558762	     52.85494849	     89.07894366	     36.42966992	     19.80561888
      0.40000000	     -3.12631694	     -4.41047531	      2.72146440	      0.33481346	      0.91038252	     -0.25401760	     -3.98183232	     10.04478210	     -9.99291206	      4.99569527	      0.08719133	      7.22737969	      0.00000000	      0.00000000	     29.62656589	     -4.30926453	      2.51004677	     31.32571279	      0.54673683	      6.09269815	      0.00000000	      0.00000000	     -9.86664211	      1.22441535	      3.54490425	      5.78042735	    -12.24109052	    -10.43269612	     63.44020069	     86.67850160	     37.15940504	     19.99161171	     -6.78764723	    -12.17830187	    -12.23198045	     52.00855997	     89.07144759	     36.42178580	     19.51899633
      0.41000000	     -3.17173331	     -4.22086910	      2.35710857	      0.34840610	      0.90818646	     -0.25331527	     -4.98897446	     10.02621183	    -10.31565415	      4.78736033	      0.08355520	      7.91220078	      0.00000000	      0.00000000	     29.61993662	     -3.95748231	      3.00180183	     27.19156203	      0.47458229	      6.00084295	      0.00000000	      0.00000000	     -9.76907198	      0.84713423	      4.29829231	      6.61649031	    -12.56385314	    -10.20287212	     64.58070826	     86.62960377	     37.18281091	     19.88887119	     -7.32539633	    -12.17845094	    -12.76572921	     51.05911933	     89.06907520	     36.13200350	     19.22220045
      0.42000000	     -2.90208884	     -3.90809939	      1.86785455	      0.36192856	      0.90640679	     -0.25249690	     -6.27413183	      9.84075545	    -10.45595911	      4.72678395	      0.08249794	      8.61103482	      0.00000000	      0.00000000	     29.10279739	     -3.60208298	      3.49767750	     22.94453154	      0.40045762	      5.62504749	      0.00000000	      0.00000000	    -10.14112878	      0.35873539	      5.04303772	      7.59131968	    -12.85705661	     -9.91660103	     65.82545350	     86.55683296	     37.15033738	     19.81477857	     -7.84761783	    -12.21305673	    -13.25725454	     50.09466852	     89.07502506	     35.25629754	     18.39947620
      0.43000000	     -3.01718492	     -3.94335067	      1.42271447	      0.37537316	      0.90361059	     -0.25194437	     -7.04932490	      9.96417764	    -10.76901834	      4.83121094	      0.08432054	      9.34359250	      0.00000000	      0.00000000	     29.07857440	     -3.57406313	      4.41822754	     19.00101080	      0.33163020	      5.17901595	      0.00000000	      0.00000000	     -9.98229951	      0.29337638	      5.83035568	      8.43902243	    -13.25839253	     -9.59352406	     66.91991811	     86.52904764	     36.74987933	     19.97196164	     -8.32276813	    -12.32226600	    -12.77477788	     48.77870152	     89.09425053	     30.94666319	     15.88588606
      0.44000000	     -3.34272028	     -4.22933264	      1.00168493	      0.38894862	      0.90002921	     -0.25149540	     -7.55490785	     10.31521971	    -11.02243515	      5.05979593	      0.08831010	     10.00056039	      0.00000000	      0.00000000	     29.36342085	     -3.83123095	      5.52389626	     15.52607696	      0.27098116	      5.01759561	      0.00000000	      0.00000000	     -9.56035148	      0.49862000	      6.51924569	      9.18586990	    -13.63189238	     -9.32481259	     68.09606355	     86.57274245	     36.79760609	     19.95316164	     -8.94524303	    -12.21101153	    -13.33763634	     47.77069885	     89.07695554	     30.70460745	     15.88455778
      0.45000000	     -3.22650920	     -4.09079846	      0.36524390	      0.40242710	      0.89762878	     -0.25078950	     -8.43324191	     10.11622906	    -11.09199474	      5.56120935	      0.09706141	     10.85182680	      0.00000000	      0.00000000	     28.96180803	     -3.86631446	      6.33063358	     12.10883035	      0.21133896	      3.76961460	      0.00000000	      0.00000000	     -9.72845245	      0.22738144	      7.34295489	     10.10732176	    -13.94741657	     -8.94516738	     69.08267208	     86.50068695	     36.40732621	     20.23230456	     -9.32164895	    -12.31590503	    -12.64453590	     46.24750487	     89.11036115	     24.65670321	     12.81347197
      0.46000000	     -3.48703111	     -4.33320083	     -0.08191936	      0.41628975	      0.89411099	     -0.25049099	     -8.94156024	     10.30360604	    -11.26614283	      6.02832543	      0.10521413	     11.40898658	      0.00000000	      0.00000000	     29.20532467	     -4.20103187	      7.23897104	      9.57428005	      0.16710271	      3.50453261	      0.00000000	      0.00000000	     -9.39380201	      0.39842874	      7.95883938	     10.77550480	    -14.24144755	     -8.67308935	     70.18550476	     86.56626038	     36.46222241	     20.21251625	     -9.93045587	    -12.19777526	    -13.18301497	     45.17041800	     89.08736371	     24.39955276	     12.83713069
